<?xml version="1.0" encoding="UTF-8" standalone="no"?>
<svg
   xmlns:dc="http://purl.org/dc/elements/1.1/"
   xmlns:cc="http://creativecommons.org/ns#"
   xmlns:rdf="http://www.w3.org/1999/02/22-rdf-syntax-ns#"
   xmlns:svg="http://www.w3.org/2000/svg"
   xmlns="http://www.w3.org/2000/svg"
   xml:space="preserve"
   viewBox="0 0 98.808894 46.331375"
   height="46.331379"
   width="98.808884"
   y="0px"
   x="0px"
   id="Capa_1"
   version="1.1"><metadata
     id="metadata3706"><rdf:RDF><cc:Work
         rdf:about=""><dc:format>image/svg+xml</dc:format><dc:type
           rdf:resource="http://purl.org/dc/dcmitype/StillImage" /><dc:title></dc:title></cc:Work></rdf:RDF></metadata><defs
     id="defs3704"><ellipse
       transform="matrix(0.82068711,0.57137787,-0.35542942,0.93470312,0,0)"
       style="font-style:normal;font-variant:normal;font-weight:normal;font-stretch:normal;font-size:medium;line-height:125%;font-family:sans-serif;-inkscape-font-specification:sans-serif;letter-spacing:0px;word-spacing:0px;fill:#000000;fill-opacity:0;stroke:#000000;stroke-width:1.61563706px;stroke-linecap:butt;stroke-linejoin:miter;stroke-opacity:1"
       id="path4588-0"
       cx="238.5914"
       cy="341.77554"
       rx="57.920555"
       ry="38.609631" /></defs><g
     transform="translate(-4.0044959e-7,-437.67467)"
     id="g3672" /><g
     transform="translate(-4.0044959e-7,-437.67467)"
     id="g3674" /><g
     transform="translate(-4.0044959e-7,-437.67467)"
     id="g3676" /><g
     transform="translate(-4.0044959e-7,-437.67467)"
     id="g3678" /><g
     transform="translate(-4.0044959e-7,-437.67467)"
     id="g3680" /><g
     transform="translate(-4.0044959e-7,-437.67467)"
     id="g3682" /><g
     transform="translate(-4.0044959e-7,-437.67467)"
     id="g3684" /><g
     transform="translate(-4.0044959e-7,-437.67467)"
     id="g3686" /><g
     transform="translate(-4.0044959e-7,-437.67467)"
     id="g3688" /><g
     transform="translate(-4.0044959e-7,-437.67467)"
     id="g3690" /><g
     transform="translate(-4.0044959e-7,-437.67467)"
     id="g3692" /><g
     transform="translate(-4.0044959e-7,-437.67467)"
     id="g3694" /><g
     transform="translate(-4.0044959e-7,-437.67467)"
     id="g3696" /><g
     transform="translate(-4.0044959e-7,-437.67467)"
     id="g3698" /><g
     transform="translate(-4.0044959e-7,-437.67467)"
     id="g3700" /><g
     transform="translate(-4.0044959e-7,-437.67466)"
     style="font-style:normal;font-variant:normal;font-weight:normal;font-stretch:normal;font-size:120px;line-height:125%;font-family:sans-serif;-inkscape-font-specification:sans-serif;letter-spacing:0px;word-spacing:0px;fill:#000000;fill-opacity:1;stroke:none;stroke-width:1px;stroke-linecap:butt;stroke-linejoin:miter;stroke-opacity:1"
     id="text3336"><g
       transform="translate(-46.137234,-8.6674973)"
       id="g4654"><g
         style="font-style:normal;font-variant:normal;font-weight:normal;font-stretch:normal;font-size:medium;line-height:125%;font-family:sans-serif;-inkscape-font-specification:sans-serif;letter-spacing:0px;word-spacing:0px;fill:#000000;fill-opacity:1;stroke:none;stroke-width:1px;stroke-linecap:butt;stroke-linejoin:miter;stroke-opacity:1;image-rendering:optimizeQuality"
         id="g3662"
         transform="matrix(0.05428653,-0.00275765,0.00275779,0.05427227,62.984211,459.77327)"><g
           id="g3664"><path
             id="polygon3666"
             d="m 0,179.083 0,10.863 241.897,116.525 242.109,-116.626 0,-10.659 L 241.897,62.561 Z" /><path
             d="m 83.808,251.571 0,69.7 145.836,70.25 24.506,0 145.435,-70.057 c 0.14,-0.307 0.271,-0.613 0.402,-0.922 l 0,-68.972 -158.09,76.152 -158.089,-76.151 z"
             id="path3668" /><path
             id="polygon3670"
             d="m 439.359,358.195 -12.476,38.008 18.859,25.242 6.381,0 18.858,-25.242 -12.475,-38.008 0,-135.596 -19.147,9.656 z" /></g></g><g
         id="text4604"
         style="font-style:normal;font-variant:normal;font-weight:normal;font-stretch:normal;font-size:7.50000095px;line-height:125%;font-family:'Good Times';-inkscape-font-specification:'Good Times';letter-spacing:0px;word-spacing:0px;fill:#000000;fill-opacity:1;stroke:none;stroke-width:1px;stroke-linecap:butt;stroke-linejoin:miter;stroke-opacity:1"
         transform="matrix(1.309538,-0.23151569,0.17826313,0.80313015,177.6116,56.519963)"><path
           id="path4667"
           style="font-style:normal;font-variant:normal;font-weight:normal;font-stretch:normal;font-size:7.50000095px;font-family:'Good Times';-inkscape-font-specification:'Good Times'"
           d="m -162.9247,486.54345 4.8496,-2.49222 2.22483,4.32929 -0.84718,0.43537 -1.79289,-3.48878 -3.15524,1.62148 1.79631,3.49545 -0.84718,0.43537 -2.22825,-4.33596 z m 2.85869,0.37761 0.71377,-0.3668 1.38151,2.68829 -0.71376,0.3668 -1.38152,-2.68829 z" /><path
           id="path4669"
           style="font-style:normal;font-variant:normal;font-weight:normal;font-stretch:normal;font-size:7.50000095px;font-family:'Good Times';-inkscape-font-specification:'Good Times'"
           d="m -160.26219,491.61348 4.04166,-3.65988 2.11941,2.34049 q 0.38764,0.42807 0.57032,0.92032 0.18268,0.49225 0.158,0.99015 -0.0247,0.4979 -0.26071,0.9747 -0.22544,0.47733 -0.66463,0.87503 -0.43919,0.39771 -0.95315,0.58993 -0.50892,0.19779 -1.0235,0.18821 -0.50902,-0.0146 -0.99747,-0.22998 -0.48288,-0.2204 -0.87052,-0.64847 l -2.11941,-2.3405 z m 2.82545,1.70115 q 0.24668,0.27241 0.55315,0.40973 0.31151,0.14287 0.63487,0.15359 0.33396,0.0113 0.66416,-0.11575 0.33019,-0.12699 0.61372,-0.38374 0.28353,-0.25675 0.437,-0.56773 0.15903,-0.31601 0.17531,-0.64441 0.0213,-0.32285 -0.0956,-0.64192 -0.10633,-0.31855 -0.35301,-0.59096 l -1.4851,-1.64001 -2.62958,2.38119 1.4851,1.64001 z" /><path
           id="path4671"
           style="font-style:normal;font-variant:normal;font-weight:normal;font-stretch:normal;font-size:7.50000095px;font-family:'Good Times';-inkscape-font-specification:'Good Times'"
           d="m -148.70994,494.30302 0.79386,0.48445 -1.58616,2.59925 q -0.32817,0.53778 -0.71514,0.85516 -0.38307,0.31098 -0.84415,0.38985 -0.46108,0.0789 -1.01937,-0.0861 -0.55189,-0.16106 -1.23052,-0.57518 -0.67222,-0.41021 -1.07424,-0.83126 -0.39562,-0.41715 -0.53634,-0.86325 -0.14072,-0.44611 -0.0394,-0.92899 0.10529,-0.48928 0.43346,-1.02706 l 1.58615,-2.59926 0.83868,0.51179 -1.58616,2.59926 q -0.21487,0.35212 -0.28401,0.65259 -0.0627,0.30437 0.0317,0.58163 0.1008,0.28116 0.38042,0.55724 0.28353,0.26966 0.76369,0.56267 0.48016,0.29301 0.84964,0.42184 0.37339,0.12242 0.66312,0.0796 0.29614,-0.0389 0.53173,-0.23784 0.242,-0.19498 0.45687,-0.5471 l 1.58616,-2.59926 z" /><path
           id="path4673"
           style="font-style:normal;font-variant:normal;font-weight:normal;font-stretch:normal;font-size:7.50000095px;font-family:'Good Times';-inkscape-font-specification:'Good Times'"
           d="m -147.54006,500.47615 q -0.54451,-0.16855 -0.94812,-0.51331 -0.39422,-0.3497 -0.62945,-0.80722 -0.22586,-0.46246 -0.2685,-1.00953 -0.0355,-0.54486 0.13972,-1.11086 0.17742,-0.57317 0.51007,-0.98838 0.33981,-0.41299 0.77856,-0.63833 0.44813,-0.23029 0.96211,-0.26747 0.52336,-0.0421 1.06787,0.12642 l 2.82287,0.87377 -0.28165,0.9099 -2.82286,-0.87377 q -0.35107,-0.10866 -0.6919,-0.0728 -0.33145,0.0309 -0.61514,0.18644 -0.28369,0.15557 -0.50085,0.42595 -0.21716,0.27038 -0.33248,0.64294 -0.1131,0.3654 -0.0889,0.71834 0.0242,0.35295 0.16819,0.64874 0.14619,0.28864 0.40002,0.50853 0.261,0.2221 0.61207,0.33077 l 2.82286,0.87377 -0.28165,0.90991 -2.82286,-0.87377 z" /><path
           id="path4675"
           style="font-style:normal;font-variant:normal;font-weight:normal;font-stretch:normal;font-size:7.50000095px;font-family:'Good Times';-inkscape-font-specification:'Good Times'"
           d="m -138.28581,502.03892 -0.67519,-1.44782 -2.56689,-0.25971 0.52547,-0.72328 1.66401,0.16836 -1.00348,-2.15194 -2.8837,3.91461 -1.08198,-0.10947 3.64453,-4.87792 q 0.0964,-0.13347 0.21666,-0.20423 0.12023,-0.0707 0.27693,-0.0549 0.1567,0.0159 0.25286,0.10851 0.10363,0.0934 0.17137,0.24348 l 2.60108,5.50982 -1.14167,-0.11551 z" /><path
           id="path4677"
           style="font-style:normal;font-variant:normal;font-weight:normal;font-stretch:normal;font-size:7.50000095px;font-family:'Good Times';-inkscape-font-specification:'Good Times'"
           d="m -135.76938,501.89286 -0.22993,-4.49413 -2.06729,0.10577 -0.0487,-0.95126 5.08585,-0.26019 0.0487,0.95125 -2.0673,0.10577 0.22993,4.49412 -0.95126,0.0487 z" /><path
           id="path4679"
           style="font-style:normal;font-variant:normal;font-weight:normal;font-stretch:normal;font-size:7.50000095px;font-family:'Good Times';-inkscape-font-specification:'Good Times'"
           d="m -132.07261,501.58669 -0.72175,-5.40452 0.94412,-0.12608 0.72175,5.40452 -0.94412,0.12608 z" /><path
           id="path4681"
           style="font-style:normal;font-variant:normal;font-weight:normal;font-stretch:normal;font-size:7.50000095px;font-family:'Good Times';-inkscape-font-specification:'Good Times'"
           d="m -127.69137,500.84719 q -0.55609,0.12516 -1.0778,0.0273 -0.51605,-0.1068 -0.94796,-0.38629 -0.42623,-0.28844 -0.73578,-0.74153 -0.30222,-0.45474 -0.43232,-1.03278 -0.13174,-0.58536 -0.0502,-1.1111 0.0889,-0.52738 0.35701,-0.94136 0.27382,-0.42294 0.70093,-0.71126 0.43279,-0.29729 0.98888,-0.42245 l 1.2951,-0.29148 q 0.57804,-0.1301 1.09646,-0.0469 0.52574,0.0815 0.94704,0.34805 0.42129,0.2665 0.72023,0.7066 0.29728,0.43278 0.42738,1.01083 0.1301,0.57804 0.0445,1.12005 -0.0783,0.54037 -0.34713,0.98527 -0.26321,0.43593 -0.69105,0.75517 -0.42949,0.31191 -1.00022,0.44037 l -1.2951,0.29148 z m 1.08596,-1.22074 q 0.36585,-0.0823 0.64352,-0.28321 0.27767,-0.20087 0.44612,-0.4771 0.17413,-0.2852 0.22606,-0.63514 0.0519,-0.34994 -0.0321,-0.72311 -0.084,-0.37316 -0.27919,-0.6598 -0.19684,-0.29395 -0.47472,-0.46972 -0.27056,-0.17742 -0.60587,-0.23265 -0.33695,-0.0625 -0.7028,0.0198 l -1.29511,0.29149 q -0.35853,0.0807 -0.6362,0.28156 -0.272,0.19191 -0.44046,0.46814 -0.16845,0.27623 -0.22203,0.61886 -0.0536,0.34262 0.0321,0.72311 0.084,0.37316 0.28083,0.66711 0.19685,0.29395 0.46906,0.47869 0.27056,0.17742 0.6002,0.24161 0.33695,0.0625 0.69548,-0.0181 l 1.29511,-0.29149 z" /><path
           id="path4683"
           style="font-style:normal;font-variant:normal;font-weight:normal;font-stretch:normal;font-size:7.50000095px;font-family:'Good Times';-inkscape-font-specification:'Good Times'"
           d="m -123.53422,495.65001 1.31923,3.7656 -0.85647,0.30005 -1.63663,-4.67161 q -0.0868,-0.24774 -0.0161,-0.43146 0.0753,-0.19328 0.28768,-0.26767 0.0991,-0.0347 0.20599,-0.0245 0.10689,0.0102 0.2407,0.0746 l 4.89331,2.33069 -1.31923,-3.7656 0.85646,-0.30005 1.65151,4.71408 q 0.0893,0.25481 0.0115,0.44101 -0.0707,0.18372 -0.26892,0.25316 -0.21943,0.0769 -0.47749,-0.0473 l -4.89155,-2.37104 z" /><path
           id="path4685"
           style="font-style:normal;font-variant:normal;font-weight:normal;font-stretch:normal;font-size:7.50000095px;font-family:'Good Times';-inkscape-font-specification:'Good Times'"
           d="m -112.62566,495.50241 q -0.51033,0.25389 -1.04034,0.283 -0.52664,0.0191 -1.01264,-0.14962 -0.48263,-0.17875 -0.89109,-0.54517 -0.40175,-0.36976 -0.66565,-0.90025 -0.26725,-0.53719 -0.31313,-1.06723 -0.0392,-0.53339 0.12276,-0.99928 0.16532,-0.47595 0.51156,-0.85762 0.34962,-0.39172 0.85996,-0.64561 l 2.64569,-1.31617 0.42425,0.8528 -2.64569,1.31617 q -0.32904,0.16369 -0.55094,0.42486 -0.21852,0.25112 -0.31641,0.5595 -0.0979,0.30838 -0.0684,0.65391 0.0295,0.34554 0.2032,0.69472 0.17037,0.34246 0.43151,0.58113 0.26114,0.23867 0.56948,0.35333 0.30501,0.10795 0.64045,0.0919 0.34216,-0.0194 0.67119,-0.18312 l 2.08836,-1.03891 -0.63137,-1.26912 -2.2025,1.09569 -0.35744,-0.7185 3.06202,-1.52329 1.41305,2.84043 -2.94787,1.4665 z" /><path
           id="path4687"
           style="font-style:normal;font-variant:normal;font-weight:normal;font-stretch:normal;font-size:7.50000095px;font-family:'Good Times';-inkscape-font-specification:'Good Times'"
           d="m -104.57585,490.97917 -1.96532,-0.58063 -1.74474,1.05711 -0.43528,-0.71842 1.94359,-1.17759 q 0.4426,-0.26816 0.52331,-0.64153 0.0768,-0.37977 -0.19912,-0.8352 -0.27593,-0.45543 -0.64541,-0.52972 -0.36694,-0.0846 -0.7903,0.17191 l -2.54014,1.53902 2.33186,3.8487 -0.80823,0.48969 -2.82543,-4.66334 3.34836,-2.02871 q 0.3977,-0.24096 0.78585,-0.30952 0.38427,-0.075 0.73839,0.0174 0.35023,0.086 0.65612,0.33031 0.3059,0.24435 0.54297,0.63564 0.35367,0.58372 0.33805,1.13687 -0.0131,0.54286 -0.36359,0.99198 l 2.26367,0.56648 -1.15461,0.69956 z" /><path
           id="path4689"
           style="font-style:normal;font-variant:normal;font-weight:normal;font-stretch:normal;font-size:7.50000095px;font-family:'Good Times';-inkscape-font-specification:'Good Times'"
           d="m -101.09883,488.60354 q -0.46264,0.33297 -0.98099,0.44729 -0.51664,0.10386 -1.02351,0.0159 -0.50516,-0.0985 -0.96744,-0.39411 -0.45618,-0.30003 -0.80229,-0.78093 -0.35049,-0.48699 -0.48137,-1.00267 -0.12479,-0.52005 -0.0402,-1.00598 0.0863,-0.4964 0.36635,-0.92898 0.28177,-0.44304 0.74441,-0.776 l 1.07746,-0.77546 q 0.48091,-0.3461 0.99049,-0.4726 0.51568,-0.13088 1.00769,-0.0507 0.49202,0.0802 0.93945,0.36805 0.443039,0.28177 0.789146,0.76268 0.346106,0.4809 0.479662,1.01313 0.139643,0.52785 0.0665,1.04251 -0.07143,0.50419 -0.340059,0.9655 -0.273008,0.45521 -0.747819,0.79694 l -1.07746,0.77545 z m 0.52106,-1.54855 q 0.30437,-0.21905 0.48118,-0.51263 0.176809,-0.29358 0.223616,-0.61372 0.04851,-0.33061 -0.04077,-0.67293 -0.08929,-0.34233 -0.312716,-0.65278 -0.22344,-0.31046 -0.51531,-0.49773 -0.29625,-0.19337 -0.62078,-0.24626 -0.31843,-0.0573 -0.64858,0.0232 -0.33453,0.0744 -0.6389,0.29349 l -1.07746,0.77545 q -0.29828,0.21468 -0.47509,0.50826 -0.1751,0.28311 -0.22191,0.60325 -0.0468,0.32014 0.0381,0.65637 0.0849,0.33624 0.31272,0.65278 0.22344,0.31046 0.51969,0.50382 0.29626,0.19337 0.61907,0.25673 0.31844,0.0573 0.64688,-0.0128 0.33453,-0.0744 0.63281,-0.2891 l 1.07746,-0.77546 z" /><path
           id="path4691"
           style="font-style:normal;font-variant:normal;font-weight:normal;font-stretch:normal;font-size:7.50000095px;font-family:'Good Times';-inkscape-font-specification:'Good Times'"
           d="m -97.023715,478.46332 0.712111,-0.59816 1.958498,2.33159 q 0.405207,0.48239 0.582769,0.95032 0.172739,0.46218 0.100605,0.92436 -0.07213,0.46218 -0.406368,0.93883 -0.328492,0.47182 -0.937233,0.98315 -0.602997,0.50651 -1.130187,0.75344 -0.521448,0.24212 -0.98914,0.23338 -0.467693,-0.009 -0.893116,-0.25866 -0.430247,-0.25567 -0.835454,-0.73807 l -1.9585,-2.33159 0.75231,-0.63193 1.958502,2.33159 q 0.265313,0.31585 0.528102,0.47711 0.268531,0.15644 0.561413,0.15529 0.298625,-0.006 0.649396,-0.18307 0.345947,-0.18285 0.77666,-0.54464 0.430712,-0.36179 0.670534,-0.67098 0.234998,-0.31493 0.286686,-0.60322 0.05743,-0.29311 -0.05604,-0.57979 -0.107732,-0.29151 -0.373046,-0.60736 l -1.958498,-2.33159 z" /><path
           id="path4693"
           style="font-style:normal;font-variant:normal;font-weight:normal;font-stretch:normal;font-size:7.50000095px;font-family:'Good Times';-inkscape-font-specification:'Good Times'"
           d="m -92.040047,479.22756 -0.641082,-0.66334 1.574758,-1.52192 q 0.361332,-0.34921 0.362815,-0.74699 0.0069,-0.40299 -0.31627,-0.73736 -0.32836,-0.33976 -0.72614,-0.34124 -0.392387,-0.007 -0.753719,0.34251 l -2.076308,2.00664 3.12723,3.23581 -0.679519,0.65671 -3.78916,-3.92071 2.755827,-2.66336 q 0.33976,-0.32836 0.703046,-0.48128 0.363467,-0.16353 0.724039,-0.15738 0.35536,7.6e-4 0.702613,0.16581 0.347252,0.16505 0.659975,0.48863 0.307511,0.31818 0.465828,0.67626 0.153104,0.35268 0.152163,0.71864 -9.4e-4,0.36597 -0.166349,0.73443 -0.165229,0.35786 -0.504989,0.68622 l -1.574758,1.52192 z" /></g><g
         id="text4592"
         style="font-style:normal;font-variant:normal;font-weight:normal;font-stretch:normal;font-size:7.5px;line-height:125%;font-family:'Lexie Readable';-inkscape-font-specification:'Lexie Readable';letter-spacing:0px;word-spacing:0px;fill:#000000;fill-opacity:1;stroke:none;stroke-width:1px;stroke-linecap:butt;stroke-linejoin:miter;stroke-opacity:1"
         transform="matrix(-1.0075402,0.39319195,-0.4810421,-0.80479006,410.30323,824.22512)"><path
           id="path4696"
           style="font-style:normal;font-variant:normal;font-weight:normal;font-stretch:normal;font-size:7.5px;font-family:'Good Times';-inkscape-font-specification:'Good Times'"
           d="m 119.13208,494.38913 1.59644,-0.0586 1.23801,-2.26356 0.46182,0.76549 -0.80255,1.46737 2.37282,-0.0871 -2.48409,-4.17961 0.52184,-0.95412 3.07544,5.25531 q 0.0854,0.14076 0.10383,0.27905 0.0184,0.13829 -0.0572,0.27647 -0.0756,0.13818 -0.19834,0.19072 -0.12636,0.0591 -0.29097,0.0631 l -6.0877,0.25225 0.55063,-1.00676 z" /><path
           id="path4698"
           style="font-style:normal;font-variant:normal;font-weight:normal;font-stretch:normal;font-size:7.5px;font-family:'Good Times';-inkscape-font-specification:'Good Times'"
           d="m 118.74796,502.75369 -0.66211,0.65308 -2.1383,-2.16789 q -0.4424,-0.44853 -0.65674,-0.90079 -0.20906,-0.44692 -0.17404,-0.91339 0.035,-0.46646 0.33017,-0.96825 0.28979,-0.49653 0.85579,-1.05481 0.56066,-0.55301 1.06647,-0.84122 0.50046,-0.28294 0.96736,-0.31156 0.4669,-0.0286 0.91091,0.18658 0.44927,0.22053 0.89168,0.66905 l 2.13829,2.16789 -0.69949,0.68994 -2.13829,-2.16788 q -0.28967,-0.29368 -0.56449,-0.43346 -0.28015,-0.13451 -0.57201,-0.11 -0.2972,0.0298 -0.63272,0.23431 -0.33025,0.20987 -0.73073,0.60487 -0.40047,0.39501 -0.61485,0.72235 -0.20912,0.33267 -0.23764,0.62417 -0.0339,0.29676 0.10213,0.57347 0.13064,0.28198 0.42031,0.57566 l 2.1383,2.16788 z" /><path
           id="path4700"
           style="font-style:normal;font-variant:normal;font-weight:normal;font-stretch:normal;font-size:7.5px;font-family:'Good Times';-inkscape-font-specification:'Good Times'"
           d="m 113.51558,500.02811 0.45248,0.83816 -3.59684,1.94175 q -0.33658,0.1817 -0.42214,0.44949 -0.0922,0.27136 0.061,0.55514 0.16746,0.31019 0.43419,0.36222 0.2637,0.0622 0.60029,-0.11951 l 2.2043,-1.18998 q 0.33659,-0.18171 0.66722,-0.23235 0.32759,-0.0405 0.61518,0.0344 0.28455,0.085 0.52553,0.27881 0.23439,0.19735 0.39472,0.49434 0.15676,0.29038 0.19619,0.58445 0.0364,0.30423 -0.0522,0.58219 -0.0952,0.28151 -0.31894,0.53014 -0.22018,0.25524 -0.57657,0.44763 l -3.44505,1.85981 -0.45248,-0.83817 3.44505,-1.8598 q 0.29039,-0.15677 0.36327,-0.40067 0.0764,-0.2373 -0.0732,-0.51449 -0.14964,-0.27718 -0.38998,-0.34347 -0.24694,-0.0627 -0.52412,0.0869 l -2.19771,1.18642 q -0.73256,0.39548 -1.29402,0.25538 -0.56805,-0.13654 -0.94571,-0.83611 -0.16389,-0.30359 -0.21044,-0.61086 -0.0466,-0.30727 0.0349,-0.59842 0.085,-0.28455 0.31182,-0.54335 0.22018,-0.25523 0.59636,-0.45831 l 3.59684,-1.94175 z" /><path
           id="path4702"
           style="font-style:normal;font-variant:normal;font-weight:normal;font-stretch:normal;font-size:7.5px;font-family:'Good Times';-inkscape-font-specification:'Good Times'"
           d="m 105.91906,503.45435 1.20108,4.33675 1.9949,-0.5525 0.25423,0.91795 -4.90776,1.35922 -0.25423,-0.91795 1.99491,-0.55249 -1.20108,-4.33676 0.91795,-0.25422 z" /><path
           id="path4704"
           style="font-style:normal;font-variant:normal;font-weight:normal;font-stretch:normal;font-size:7.5px;font-family:'Good Times';-inkscape-font-specification:'Good Times'"
           d="m 97.322094,504.80003 1.499274,1.39707 2.033172,-0.16683 0.0687,0.83719 -2.264888,0.18584 q -0.515766,0.0423 -0.754693,0.34036 -0.238314,0.30551 -0.194766,0.83623 0.04355,0.53072 0.340972,0.76217 0.290563,0.23954 0.783905,0.19906 l 2.96005,-0.24289 -0.36801,-4.48493 0.94184,-0.0773 0.4459,5.43424 -3.901885,0.32017 q -0.463443,0.038 -0.841365,-0.0739 -0.377309,-0.1045 -0.652923,-0.34527 -0.274999,-0.23329 -0.439601,-0.58852 -0.164602,-0.35522 -0.202016,-0.81119 -0.05581,-0.68022 0.205153,-1.16819 0.254106,-0.47989 0.768262,-0.72526 l -1.772549,-1.51762 1.345478,-0.11041 z" /><path
           id="path4706"
           style="font-style:normal;font-variant:normal;font-weight:normal;font-stretch:normal;font-size:7.5px;font-family:'Good Times';-inkscape-font-specification:'Good Times'"
           d="m 89.798806,504.3219 0.685564,1.44294 2.568694,0.24127 -0.52027,0.72703 -1.665171,-0.1564 1.0189,2.14468 2.855524,-3.9352 1.082734,0.1017 -3.609422,4.90394 q -0.09547,0.13416 -0.215187,0.20578 -0.119722,0.0716 -0.276532,0.0569 -0.15681,-0.0147 -0.253634,-0.10669 -0.104292,-0.0927 -0.173104,-0.24225 l -2.640567,-5.491 1.142471,0.10731 z" /><path
           id="path4708"
           style="font-style:normal;font-variant:normal;font-weight:normal;font-stretch:normal;font-size:7.5px;font-family:'Good Times';-inkscape-font-specification:'Good Times'"
           d="m 88.093613,504.01508 -1.194147,5.32013 -0.929376,-0.20861 0.985541,-4.39075 -3.578464,-0.80322 0.208606,-0.92937 4.50784,1.01182 z" /><path
           id="path4710"
           style="font-style:normal;font-variant:normal;font-weight:normal;font-stretch:normal;font-size:7.5px;font-family:'Good Times';-inkscape-font-specification:'Good Times'"
           d="m 82.889453,502.75573 -1.531218,5.23308 -0.91417,-0.26749 1.531218,-5.23308 0.91417,0.26749 z" /><path
           id="path4712"
           style="font-style:normal;font-variant:normal;font-weight:normal;font-stretch:normal;font-size:7.5px;font-family:'Good Times';-inkscape-font-specification:'Good Times'"
           d="m 75.668525,500.27051 0.284645,1.57195 2.41637,0.90419 -0.69219,0.5658 -1.566426,-0.58615 0.423002,2.33643 3.784706,-3.05219 1.018528,0.38113 -4.765574,3.79024 q -0.127208,0.10455 -0.261486,0.14239 -0.134278,0.0378 -0.281789,-0.0174 -0.147511,-0.0552 -0.216938,-0.16926 -0.07645,-0.11669 -0.103779,-0.27907 l -1.113792,-5.99026 1.074723,0.40216 z" /><path
           id="path4714"
           style="font-style:normal;font-variant:normal;font-weight:normal;font-stretch:normal;font-size:7.5px;font-family:'Good Times';-inkscape-font-specification:'Good Times'"
           d="m 71.525582,502.78366 1.756662,-3.58249 0.814814,0.39954 -2.179317,4.44444 q -0.11557,0.23569 -0.296088,0.31424 -0.190554,0.082 -0.392574,-0.0171 -0.09428,-0.0462 -0.162006,-0.12956 -0.06773,-0.0833 -0.115779,-0.22384 l -1.773828,-5.12153 -1.756662,3.58249 -0.814815,-0.39954 2.19913,-4.48485 q 0.118872,-0.24242 0.306124,-0.31766 0.180518,-0.0786 0.36907,0.0139 0.208754,0.10237 0.301418,0.37334 l 1.743851,5.1486 z" /><path
           id="path4716"
           style="font-style:normal;font-variant:normal;font-weight:normal;font-stretch:normal;font-size:7.5px;font-family:'Good Times';-inkscape-font-specification:'Good Times'"
           d="m 66.299893,495.55992 -2.889311,4.62403 -4.127915,-2.57932 0.504735,-0.80777 3.326502,2.07856 1.87984,-3.00848 -3.332862,-2.08253 0.504736,-0.80778 4.134275,2.58329 z m -2.64881,1.13953 -0.425249,0.68056 -2.563251,-1.60164 0.42525,-0.68056 2.56325,1.60164 z" /><path
           id="path4718"
           style="font-style:normal;font-variant:normal;font-weight:normal;font-stretch:normal;font-size:7.5px;font-family:'Good Times';-inkscape-font-specification:'Good Times'"
           d="m 56.880135,489.17688 -0.150371,1.59042 2.082479,1.52305 -0.819252,0.35789 -1.34998,-0.98733 -0.223569,2.36386 4.468255,-1.91691 0.87779,0.64198 -5.611973,2.36271 q -0.150713,0.0663 -0.290221,0.0665 -0.139508,1.8e-4 -0.266636,-0.0928 -0.127128,-0.093 -0.163178,-0.22155 -0.0421,-0.133 -0.02457,-0.29673 l 0.54501,-6.0685 0.926219,0.67741 z" /><path
           id="path4720"
           style="font-style:normal;font-variant:normal;font-weight:normal;font-stretch:normal;font-size:7.5px;font-family:'Good Times';-inkscape-font-specification:'Good Times'"
           d="m 51.667517,484.82494 0.06266,2.04834 1.549426,1.32698 -0.546404,0.638 -1.726015,-1.47821 q -0.393053,-0.33663 -0.772936,-0.29661 -0.384762,0.0457 -0.731143,0.45016 -0.346381,0.40444 -0.301486,0.77863 0.03432,0.375 0.410284,0.69699 l 2.255782,1.93193 2.927164,-3.41785 0.717749,0.6147 -3.546747,4.1413 -2.973531,-2.54663 q -0.353178,-0.30248 -0.539609,-0.64976 -0.19131,-0.34159 -0.214237,-0.70683 -0.02781,-0.35956 0.10871,-0.7265 0.136517,-0.36693 0.434112,-0.71442 0.443953,-0.51837 0.974283,-0.6764 0.519755,-0.15722 1.055924,0.0354 l -0.169344,-2.32733 1.025355,0.87815 z" /><path
           id="path4722"
           style="font-style:normal;font-variant:normal;font-weight:normal;font-stretch:normal;font-size:7.5px;font-family:'Good Times';-inkscape-font-specification:'Good Times'"
           d="m 50.305992,483.56902 -3.783086,3.92658 -0.685936,-0.66087 3.122217,-3.24065 -2.641124,-2.5446 0.660869,-0.68594 3.32706,3.20548 z" /><path
           id="path4724"
           style="font-style:normal;font-variant:normal;font-weight:normal;font-stretch:normal;font-size:7.5px;font-family:'Good Times';-inkscape-font-specification:'Good Times'"
           d="m 45.590317,478.83874 -1.521291,1.40377 -0.522632,4.42144 -0.869728,-0.94253 0.40712,-3.26373 -3.290954,0.13847 -0.823953,-0.89294 4.454209,-0.16073 1.521291,-1.40377 0.645938,0.70002 z" /></g></g></g></svg>